<svg width="95" height="91" viewBox="0 0 95 91" fill="none" xmlns="http://www.w3.org/2000/svg">
<path d="M9.5 90.375C6.8875 90.375 4.65183 89.4456 2.793 87.5867C0.934167 85.7279 0.00316667 83.4907 0 80.875V28.625C0 26.0125 0.931 23.7768 2.793 21.918C4.655 20.0592 6.89067 19.1282 9.5 19.125H28.5V9.625C28.5 7.0125 29.431 4.77683 31.293 2.918C33.155 1.05917 35.3907 0.128167 38 0.125H57C59.6125 0.125 61.8497 1.056 63.7117 2.918C65.5737 4.78 66.5032 7.01567 66.5 9.625V19.125H85.5C88.1125 19.125 90.3497 20.056 92.2117 21.918C94.0737 23.78 95.0032 26.0157 95 28.625V80.875C95 83.4875 94.0706 85.7247 92.2117 87.5867C90.3529 89.4487 88.1157 90.3782 85.5 90.375H9.5ZM9.5 80.875H85.5V28.625H9.5V80.875ZM38 19.125H57V9.625H38V19.125Z" fill="black"/>
</svg>
