<svg width="35" height="38" viewBox="0 0 35 38" fill="none" xmlns="http://www.w3.org/2000/svg">
<path id="Vector" d="M2.66675 22.3333V15.6667C2.66675 9.38168 2.66675 6.23834 4.62008 4.28668C6.57341 2.33501 9.71508 2.33334 16.0001 2.33334H19.3334C25.6184 2.33334 28.7617 2.33334 30.7134 4.28668C31.8034 5.37501 32.2851 6.83334 32.4967 9.00001M32.6667 15.6667V22.3333C32.6667 28.6183 32.6667 31.7617 30.7134 33.7133C28.7601 35.665 25.6184 35.6667 19.3334 35.6667H16.0001C9.71508 35.6667 6.57175 35.6667 4.62008 33.7133C3.53008 32.625 3.04841 31.1667 2.83675 29M11.0001 22.3333H19.3334M11.0001 15.6667H12.6667M24.3334 15.6667H17.6667" stroke="white" stroke-width="4" stroke-linecap="round"/>
</svg>
