<svg width="42" height="41" viewBox="0 0 42 41" fill="none" xmlns="http://www.w3.org/2000/svg">
<path id="Vector" d="M40 34.943V21.285C40 20.1845 39.767 19.0954 39.3151 18.0841C38.8633 17.0728 38.2021 16.1604 37.3717 15.4024L23.9091 3.11568C23.1244 2.39939 22.0834 2 21.0011 2C19.9187 2 18.8777 2.39939 18.093 3.11568L4.62833 15.4024C3.79793 16.1604 3.1367 17.0728 2.68485 18.0841C2.23301 19.0954 2 20.1845 2 21.285V34.943C2 36.019 2.44484 37.0509 3.23666 37.8117C4.02848 38.5726 5.10242 39 6.22222 39H35.7778C36.8976 39 37.9715 38.5726 38.7633 37.8117C39.5552 37.0509 40 36.019 40 34.943Z" stroke="#0004FF" stroke-width="4" stroke-linecap="round" stroke-linejoin="round"/>
</svg>
