<svg width="95" height="96" viewBox="0 0 95 96" fill="none" xmlns="http://www.w3.org/2000/svg">
<path d="M26.5947 8.99803L42.1747 22.5103C42.6038 22.8822 42.948 23.3422 43.1838 23.8589C43.4197 24.3757 43.5417 24.9372 43.5417 25.5054V66.6918H30.3472C29.2974 66.6918 28.2906 67.1092 27.5483 67.8522C26.8059 68.5952 26.3889 69.6028 26.3889 70.6536V87.8212H9.23611C8.88617 87.8212 8.55057 87.6821 8.30312 87.4344C8.05568 87.1868 7.91667 86.8509 7.91667 86.5006V25.5054C7.91662 24.9372 8.03866 24.3757 8.27452 23.8589C8.51037 23.3422 8.85452 22.8822 9.28361 22.5103L24.8583 8.99803C25.0984 8.78918 25.4058 8.67417 25.7239 8.67417C26.042 8.67417 26.3546 8.78918 26.5947 8.99803ZM43.5364 74.6153V87.8212H34.3056V74.6206L43.5364 74.6153ZM51.4531 74.6153H60.6892V87.8212H51.4531V74.6153ZM68.6111 87.8265V70.6589C68.6111 69.6081 68.1941 68.6004 67.4517 67.8575C66.7094 67.1145 65.7026 66.6971 64.6528 66.6971H51.4583V25.5054C51.4583 24.9372 51.5803 24.3757 51.8162 23.8589C52.052 23.3422 52.3962 22.8822 52.8253 22.5103L68.4053 8.99803C68.6454 8.78918 68.9527 8.67417 69.2708 8.67417C69.5889 8.67417 69.8963 8.78918 70.1364 8.99803L85.7164 22.5103C86.1455 22.8822 86.4896 23.3422 86.7255 23.8589C86.9613 24.3757 87.0834 24.9372 87.0833 25.5054V86.5006C87.0833 86.8509 86.9443 87.1868 86.6969 87.4344C86.4494 87.6821 86.1138 87.8212 85.7639 87.8212L68.6111 87.8265ZM9.23611 95.75H85.7639C88.2135 95.75 90.5627 94.7761 92.2948 93.0425C94.0269 91.3089 95 88.9576 95 86.5059V25.5054C94.9994 23.8018 94.6329 22.1184 93.9254 20.569C93.2178 19.0196 92.1858 17.6406 90.8992 16.5254L75.3192 3.00785C73.64 1.55161 71.4927 0.75 69.2708 0.75C67.049 0.75 64.9016 1.55161 63.2225 3.00785L47.6425 16.5201L47.5 16.6469L47.3575 16.5148L31.7775 3.00785C30.0984 1.55161 27.951 0.75 25.7292 0.75C23.5073 0.75 21.36 1.55161 19.6808 3.00785L4.10083 16.5201C2.81422 17.6353 1.78218 19.0144 1.07465 20.5637C0.367111 22.1131 0.000616469 23.7966 0 25.5001V86.5059C0 91.6139 4.13778 95.75 9.23611 95.75ZM31.0281 32.3618C31.0281 33.7628 30.472 35.1064 29.4822 36.097C28.4925 37.0877 27.15 37.6442 25.7503 37.6442C24.3505 37.6442 23.0081 37.0877 22.0183 36.097C21.0285 35.1064 20.4725 33.7628 20.4725 32.3618C20.4725 30.9609 21.0285 29.6173 22.0183 28.6267C23.0081 27.636 24.3505 27.0795 25.7503 27.0795C27.15 27.0795 28.4925 27.636 29.4822 28.6267C30.472 29.6173 31.0281 30.9609 31.0281 32.3618ZM25.7503 58.7577C27.15 58.7577 28.4925 58.2012 29.4822 57.2106C30.472 56.2199 31.0281 54.8763 31.0281 53.4754C31.0281 52.0744 30.472 50.7308 29.4822 49.7402C28.4925 48.7496 27.15 48.193 25.7503 48.193C24.3505 48.193 23.0081 48.7496 22.0183 49.7402C21.0285 50.7308 20.4725 52.0744 20.4725 53.4754C20.4725 54.8763 21.0285 56.2199 22.0183 57.2106C23.0081 58.2012 24.3505 58.7577 25.7503 58.7577ZM69.2497 37.6442C67.85 37.6442 66.5075 37.0877 65.5178 36.097C64.528 35.1064 63.9719 33.7628 63.9719 32.3618C63.9719 30.9609 64.528 29.6173 65.5178 28.6267C66.5075 27.636 67.85 27.0795 69.2497 27.0795C70.6495 27.0795 71.9919 27.636 72.9817 28.6267C73.9714 29.6173 74.5275 30.9609 74.5275 32.3618C74.5275 33.7628 73.9714 35.1064 72.9817 36.097C71.9919 37.0877 70.6495 37.6442 69.2497 37.6442ZM63.9719 53.4754C63.9719 54.8763 64.528 56.2199 65.5178 57.2106C66.5075 58.2012 67.85 58.7577 69.2497 58.7577C70.6495 58.7577 71.9919 58.2012 72.9817 57.2106C73.9714 56.2199 74.5275 54.8763 74.5275 53.4754C74.5275 52.0744 73.9714 50.7308 72.9817 49.7402C71.9919 48.7496 70.6495 48.193 69.2497 48.193C67.85 48.193 66.5075 48.7496 65.5178 49.7402C64.528 50.7308 63.9719 52.0744 63.9719 53.4754Z" fill="black"/>
</svg>
