<svg width="101" height="72" viewBox="0 0 101 72" fill="none" xmlns="http://www.w3.org/2000/svg">
<path d="M22 69C32.4934 69 41 60.4934 41 50C41 39.5066 32.4934 31 22 31C11.5066 31 3 39.5066 3 50C3 60.4934 11.5066 69 22 69Z" stroke="black" stroke-width="5" stroke-linecap="round" stroke-linejoin="round"/>
<path d="M79 69C89.4934 69 98 60.4934 98 50C98 39.5066 89.4934 31 79 31C68.5066 31 60 39.5066 60 50C60 60.4934 68.5066 69 79 69Z" stroke="black" stroke-width="5" stroke-linecap="round" stroke-linejoin="round"/>
<path d="M60 50C60 47.4804 58.9991 45.0641 57.2175 43.2825C55.4359 41.5009 53.0196 40.5 50.5 40.5C47.9804 40.5 45.5641 41.5009 43.7825 43.2825C42.0009 45.0641 41 47.4804 41 50M5.375 40.5L17.25 12C20.575 5.825 23.9 2.5 31.5 2.5M95.625 40.5L83.75 12C80.425 5.825 76.625 2.5 69.5 2.5" stroke="black" stroke-width="5" stroke-linecap="round" stroke-linejoin="round"/>
</svg>
