<svg width="101" height="112" viewBox="0 0 101 112" fill="none" xmlns="http://www.w3.org/2000/svg">
<path d="M83.4164 57.0348H98V39.061H3V57.0348H30.5774V103.25H64.8002M71.6561 68.6898V68.4064" stroke="black" stroke-width="6" stroke-linecap="round" stroke-linejoin="round"/>
<path d="M50.5001 39.0637C60.4268 39.0637 68.4739 31.0166 68.4739 21.09C68.4739 11.1633 60.4268 3.11618 50.5001 3.11618C40.5735 3.11618 32.5264 11.1633 32.5264 21.09C32.5264 31.0166 40.5735 39.0637 50.5001 39.0637Z" stroke="black" stroke-width="6" stroke-linecap="round" stroke-linejoin="round"/>
<path d="M71.6562 68.6898V68.4064" stroke="black" stroke-width="6" stroke-linecap="round" stroke-linejoin="round"/>
<path d="M50.5001 39.0637C60.4268 39.0637 68.4739 31.0166 68.4739 21.09C68.4739 11.1633 60.4268 3.11618 50.5001 3.11618C40.5735 3.11618 32.5264 11.1633 32.5264 21.09C32.5264 31.0166 40.5735 39.0637 50.5001 39.0637Z" stroke="black" stroke-width="6" stroke-linecap="round" stroke-linejoin="round"/>
<path d="M50.4999 90.4127V103.25M49.8926 68.6871V78.3636H64.8136V108.384H83.6349V78.3636H97.9999V68.6871H49.8926Z" stroke="black" stroke-width="6" stroke-linecap="round" stroke-linejoin="round"/>
<path d="M73.9451 68.6845C79.2893 68.6845 83.6216 64.3521 83.6216 59.0079C83.6216 53.6638 79.2893 49.3314 73.9451 49.3314C68.6009 49.3314 64.2686 53.6638 64.2686 59.0079C64.2686 64.3521 68.6009 68.6845 73.9451 68.6845Z" stroke="black" stroke-width="6" stroke-linecap="round" stroke-linejoin="round"/>
<path d="M73.9448 96.1377V108.384" stroke="black" stroke-width="6" stroke-linecap="round" stroke-linejoin="round"/>
</svg>
