<svg width="32" height="32" viewBox="0 0 32 32" fill="none" xmlns="http://www.w3.org/2000/svg">
<g id="Group">
<path id="Vector" d="M30.4222 24.3347C30.3906 24.8857 30.3464 25.3889 30.2842 25.851C30.0717 27.4292 29.6583 28.4526 28.8883 29.2233C28.1185 29.9938 27.0953 30.4072 25.5169 30.6195C23.9241 30.8337 21.8424 30.8348 19 30.8348H13C10.1577 30.8348 8.07637 30.8333 6.48377 30.6189C4.90556 30.4064 3.88211 29.9931 3.1114 29.223C2.34091 28.4532 1.92758 27.43 1.71529 25.8516C1.50106 24.2588 1.5 22.1771 1.5 19.3348V13.3348C1.5 10.4924 1.50106 8.4107 1.71529 6.8179C1.89164 5.50672 2.20671 4.57868 2.75 3.86074V21.5848V22.7919L3.60355 21.9383L6.46842 19.0734C7.48619 18.0564 8.22075 17.3228 8.83589 16.8275C9.44872 16.3341 9.87876 16.1319 10.2779 16.098C10.7367 16.0592 11.1973 16.1478 11.6088 16.3542C11.9668 16.5337 12.291 16.8808 12.6767 17.5665C13.0638 18.2548 13.4733 19.209 14.0404 20.5322L14.1197 20.7178L14.1201 20.7187L14.1349 20.753C14.3693 21.2986 14.5595 21.7412 14.7422 22.0763C14.9295 22.4198 15.1422 22.7157 15.4532 22.9083L15.4538 22.9087C15.8709 23.1663 16.3681 23.2617 16.8509 23.1768M30.4222 24.3347L16.8505 23.1769C16.8506 23.1769 16.8508 23.1768 16.8509 23.1768M30.4222 24.3347L30.2501 24.3348C29.4713 24.3349 28.7001 24.1816 27.9806 23.8836C27.261 23.5857 26.6072 23.149 26.0565 22.5983L26.0564 22.5983L24.9284 21.4703C24.3816 20.9235 23.9911 20.5334 23.6614 20.2495C23.3357 19.969 23.0993 19.8191 22.8713 19.7344L22.8713 19.7344C22.3092 19.5254 21.6908 19.5254 21.1287 19.7344L21.1287 19.7344C20.9006 19.8192 20.6638 19.9692 20.3382 20.2495C20.0088 20.5332 19.6186 20.9232 19.0735 21.4698L19.0715 21.4719L18.9021 21.6398M30.4222 24.3347L18.9021 21.6398M16.8509 23.1768C17.2117 23.1141 17.5196 22.9186 17.8212 22.6693C18.1174 22.4245 18.4606 22.0813 18.8838 21.658L18.9005 21.6414L18.9021 21.6398M16.8509 23.1768L18.9021 21.6398" fill="white" stroke="white"/>
<path id="Vector_2" d="M2.5 13.3348C2.5 10.4638 2.503 8.46128 2.707 6.95078C2.9035 5.48378 3.265 4.70678 3.817 4.15328C4.372 3.59828 5.149 3.23828 6.616 3.04178C8.1265 2.83778 10.129 2.83478 13 2.83478H19C21.871 2.83478 23.8735 2.83778 25.384 3.04178C26.851 3.23828 27.628 3.59978 28.1815 4.15178C28.7365 4.70678 29.0965 5.48378 29.2945 6.95078C29.497 8.46128 29.5 10.4638 29.5 13.3348V19.3348C29.5 22.2058 29.497 24.2083 29.2945 25.7188C29.0965 27.1858 28.735 27.9628 28.1815 28.5163C27.628 29.0713 26.851 29.4313 25.384 29.6293C23.8735 29.8318 21.871 29.8348 19 29.8348H13C10.129 29.8348 8.1265 29.8318 6.616 29.6293C5.149 29.4313 4.372 29.0698 3.8185 28.5163C3.2635 27.9628 2.9035 27.1858 2.707 25.7188C2.503 24.2083 2.5 22.2058 2.5 19.3348V13.3348Z" stroke="white" stroke-width="4"/>
<path id="Vector_3" d="M23 11.8348C23 13.2155 21.8807 14.3348 20.5 14.3348C19.1193 14.3348 18 13.2155 18 11.8348C18 10.4541 19.1193 9.33478 20.5 9.33478C21.8807 9.33478 23 10.4541 23 11.8348Z" fill="white" stroke="white"/>
</g>
</svg>
