<svg width="43" height="30" viewBox="0 0 43 30" fill="none" xmlns="http://www.w3.org/2000/svg">
<path id="Vector" d="M27.5833 10.8333L37.0687 6.09167C37.3862 5.93299 37.739 5.85808 38.0937 5.87405C38.4483 5.89003 38.7929 5.99635 39.0949 6.18293C39.3969 6.36951 39.6462 6.63016 39.8192 6.94015C39.9922 7.25014 40.0831 7.59918 40.0833 7.95417V22.0458C40.0831 22.4008 39.9922 22.7499 39.8192 23.0599C39.6462 23.3698 39.3969 23.6305 39.0949 23.8171C38.7929 24.0037 38.4483 24.11 38.0937 24.1259C37.739 24.1419 37.3862 24.067 37.0687 23.9083L27.5833 19.1667V10.8333ZM2.58325 6.66667C2.58325 5.5616 3.02224 4.50179 3.80364 3.72039C4.58504 2.93899 5.64485 2.5 6.74992 2.5H23.4166C24.5217 2.5 25.5815 2.93899 26.3629 3.72039C27.1443 4.50179 27.5833 5.5616 27.5833 6.66667V23.3333C27.5833 24.4384 27.1443 25.4982 26.3629 26.2796C25.5815 27.061 24.5217 27.5 23.4166 27.5H6.74992C5.64485 27.5 4.58504 27.061 3.80364 26.2796C3.02224 25.4982 2.58325 24.4384 2.58325 23.3333V6.66667Z" stroke="white" stroke-width="4" stroke-linecap="round" stroke-linejoin="round"/>
</svg>
